<svg width="39" height="39" viewBox="0 0 39 39" fill="none" xmlns="http://www.w3.org/2000/svg">
<path d="M37.375 6.5V16.25M37.375 16.25H27.625M37.375 16.25L29.835 9.165C28.0885 7.41766 25.9279 6.14121 23.5547 5.45476C21.1815 4.76831 18.673 4.69422 16.2635 5.23942C13.8539 5.78462 11.6217 6.93133 9.77513 8.57256C7.92859 10.2138 6.5279 12.296 5.70375 14.625M1.625 32.5V22.75M1.625 22.75H11.375M1.625 22.75L9.165 29.835C10.9115 31.5823 13.0721 32.8588 15.4453 33.5452C17.8185 34.2317 20.327 34.3058 22.7365 33.7606C25.1461 33.2154 27.3783 32.0687 29.2249 30.4274C31.0714 28.7862 32.4721 26.704 33.2962 24.375" stroke="white" stroke-width="3.25" stroke-linecap="round" stroke-linejoin="round"/>
</svg>
