<svg width="42" height="42" viewBox="0 0 42 42" fill="none" xmlns="http://www.w3.org/2000/svg">
<path d="M16.1874 38.5L15.4874 32.9C15.1082 32.7542 14.7509 32.5792 14.4155 32.375C14.0801 32.1708 13.7519 31.9521 13.4311 31.7188L8.22485 33.9063L3.41235 25.5938L7.9186 22.1813C7.88944 21.9771 7.87485 21.7802 7.87485 21.5906V20.4094C7.87485 20.2198 7.88944 20.0229 7.9186 19.8188L3.41235 16.4063L8.22485 8.09375L13.4311 10.2813C13.7519 10.0479 14.0874 9.82917 14.4374 9.625C14.7874 9.42083 15.1374 9.24583 15.4874 9.1L16.1874 3.5H25.8124L26.5124 9.1C26.8915 9.24583 27.2488 9.42083 27.5842 9.625C27.9196 9.82917 28.2478 10.0479 28.5686 10.2813L33.7749 8.09375L38.5874 16.4063L34.0811 19.8188C34.1103 20.0229 34.1249 20.2198 34.1249 20.4094V21.5906C34.1249 21.7802 34.0957 21.9771 34.0374 22.1813L38.5436 25.5938L33.7311 33.9063L28.5686 31.7188C28.2478 31.9521 27.9124 32.1708 27.5624 32.375C27.2124 32.5792 26.8624 32.7542 26.5124 32.9L25.8124 38.5H16.1874ZM19.2499 35H22.7061L23.3186 30.3625C24.2228 30.1292 25.0613 29.7865 25.8342 29.3344C26.6071 28.8823 27.3144 28.3354 27.9561 27.6938L32.2874 29.4875L33.9936 26.5125L30.2311 23.6688C30.3769 23.2604 30.479 22.8302 30.5374 22.3781C30.5957 21.926 30.6249 21.4667 30.6249 21C30.6249 20.5333 30.5957 20.074 30.5374 19.6219C30.479 19.1698 30.3769 18.7396 30.2311 18.3313L33.9936 15.4875L32.2874 12.5125L27.9561 14.35C27.3144 13.6792 26.6071 13.1177 25.8342 12.6656C25.0613 12.2135 24.2228 11.8708 23.3186 11.6375L22.7499 7H19.2936L18.6811 11.6375C17.7769 11.8708 16.9384 12.2135 16.1655 12.6656C15.3926 13.1177 14.6853 13.6646 14.0436 14.3063L9.71235 12.5125L8.0061 15.4875L11.7686 18.2875C11.6228 18.725 11.5207 19.1625 11.4624 19.6C11.404 20.0375 11.3749 20.5042 11.3749 21C11.3749 21.4667 11.404 21.9188 11.4624 22.3563C11.5207 22.7938 11.6228 23.2313 11.7686 23.6688L8.0061 26.5125L9.71235 29.4875L14.0436 27.65C14.6853 28.3208 15.3926 28.8823 16.1655 29.3344C16.9384 29.7865 17.7769 30.1292 18.6811 30.3625L19.2499 35ZM21.0874 27.125C22.779 27.125 24.2228 26.5271 25.4186 25.3313C26.6144 24.1354 27.2124 22.6917 27.2124 21C27.2124 19.3083 26.6144 17.8646 25.4186 16.6688C24.2228 15.4729 22.779 14.875 21.0874 14.875C19.3665 14.875 17.9155 15.4729 16.7342 16.6688C15.553 17.8646 14.9624 19.3083 14.9624 21C14.9624 22.6917 15.553 24.1354 16.7342 25.3313C17.9155 26.5271 19.3665 27.125 21.0874 27.125Z" fill="#1D1B20"/>
</svg>
