<svg width="33" height="36" viewBox="0 0 33 36" fill="none" xmlns="http://www.w3.org/2000/svg">
<path d="M1.62793 8.13902H4.88353M4.88353 8.13902H30.9284M4.88353 8.13902V30.9283C4.88353 31.7917 5.22654 32.6198 5.83708 33.2303C6.44762 33.8409 7.2757 34.1839 8.13914 34.1839H24.4172C25.2806 34.1839 26.1087 33.8409 26.7192 33.2303C27.3298 32.6198 27.6728 31.7917 27.6728 30.9283V8.13902M9.76694 8.13902V4.88341C9.76694 4.01997 10.1099 3.1919 10.7205 2.58135C11.331 1.97081 12.1591 1.62781 13.0225 1.62781H19.5338C20.3972 1.62781 21.2253 1.97081 21.8358 2.58135C22.4464 3.1919 22.7894 4.01997 22.7894 4.88341V8.13902M13.0225 16.278V26.0448M19.5338 16.278V26.0448" stroke="#F75151" stroke-width="3.25561" stroke-linecap="round" stroke-linejoin="round"/>
</svg>
